# xmcd
#
# Track frame offsets:
#  150
#  19222
#  34015
#  45160
#  57582
#  74895
#  91660
#  106690
#  119662
#  130842
#
# Disc length: 1932 seconds
#
# Revision: 0
# Processed by: cddbd v1.4PL0 Copyright (c) Steve Scherf et al.
# Submitted via: AltoMP3_Maker 3.0
#
DISCID=85078a0a
DTITLE=James Foley - Hot country hits
DYEAR=1900
DGENRE=
TTITLE0=I Swear
TTITLE1=I couldn't leave you if i tried
TTITLE2=Take this chain from my heart
TTITLE3=Don't rock the jukebox
TTITLE4=Friends in low places
TTITLE5=Mercury blues
TTITLE6=Little ways
TTITLE7=My next broken heart
TTITLE8=Chatanoochee
TTITLE9=Down in louisiana
EXTD=
EXTT0=
EXTT1=
EXTT2=
EXTT3=
EXTT4=
EXTT5=
EXTT6=
EXTT7=
EXTT8=
EXTT9=
PLAYORDER=
